<svg xmlns="http://www.w3.org/2000/svg" viewBox="0 0 245.04 74.97"><title>Plan de travail 1 copie 4</title><g style="isolation:isolate"><g style="mix-blend-mode:color"><path d="M215.7,12c-6.83-7.68-17-12-28.68-12H154.88V13.29l-4.71-4.71L139.81,18.94,129.45,8.58l-4.59,4.59V0H35.73V12.61L26.3,0H0V71.57H31.9V59.06l9.35,12.52h26.3V63.77c6.06,5.49,14.29,8.4,23.83,8.4,10.63,0,19.41-3.65,25.3-10L129.45,75l10.36-10.36,7,7H245V12ZM57.82,61.54H46.13l-24-32.08V61.54H9.74V9.44H21.42l24,32.15V9.44H57.82Zm57.31-21.88c0,13.77-9.15,22.48-23.74,22.48s-24-8.71-24-22.48V9.44H80.59V39.66C80.59,46.73,85.13,51,91.46,51S102,46.73,102,39.66V9.44h13.17Zm44.11,12.19-9.07,9.07L139.81,50.55,129.45,60.91l-9.07-9.07,10.36-10.36L120.38,31.12l9.07-9.07,10.36,10.36,10.36-10.36,9.07,9.07L148.87,41.48Zm77.43-19.07H215.84a30,30,0,0,1,.22,3.5c0,.68,0,1.33-.09,2h14v8H214.22a23.89,23.89,0,0,1-3,5.49h25.48V62.32H166V10.22h22.4c10.7,0,19.21,4.53,23.85,12h24.44Z" style="fill:#fff"/><path d="M188.08,20.79h-8.86v31h9.45c8.11,0,13.92-6.25,13.92-15.41S196.49,20.79,188.08,20.79Z" style="fill:#fff"/></g></g></svg>