<?xml version="1.0" standalone="no"?>
<!DOCTYPE svg PUBLIC "-//W3C//DTD SVG 20010904//EN"
 "http://www.w3.org/TR/2001/REC-SVG-20010904/DTD/svg10.dtd">
<svg version="1.0" xmlns="http://www.w3.org/2000/svg"
 width="260.000000pt" height="260.000000pt" viewBox="0 0 260.000000 260.000000"
 preserveAspectRatio="xMidYMid meet">
<metadata>
Created by potrace 1.11, written by Peter Selinger 2001-2013
</metadata>
<g transform="translate(0.000000,260.000000) scale(0.100000,-0.100000)"
fill="#000000" stroke="none">
<path d="M1247 2484 c-1 -1 -47 -5 -102 -8 -245 -16 -430 -67 -558 -155 -102
-70 -213 -212 -255 -327 -52 -141 -51 -132 -52 -995 l0 -805 24 -23 c23 -22
29 -22 265 -23 l242 -1 22 24 22 24 1 750 c1 413 4 769 8 791 18 98 86 162
201 190 133 32 434 23 525 -14 69 -29 123 -89 141 -157 8 -27 11 -286 12 -802
l0 -762 25 -21 c23 -21 34 -22 264 -22 236 -1 239 0 264 23 l24 23 -1 805 c-1
880 -1 876 -60 1014 -56 133 -145 240 -269 322 -37 25 -72 45 -76 45 -5 0 -21
6 -36 14 -14 8 -57 22 -94 31 -82 21 -96 23 -199 40 -50 8 -333 24 -338 19z"/>
</g>
</svg>
